<svg 
 xmlns="http://www.w3.org/2000/svg"
 xmlns:xlink="http://www.w3.org/1999/xlink"
 width="116px" height="155px">
<path fill-rule="evenodd"  fill="rgb(19, 14, 39)"
 d="M112.627,77.500 L96.667,109.792 C95.320,112.497 92.967,115.089 90.147,115.897 C90.159,116.017 90.222,116.125 90.222,116.250 L90.222,122.708 C90.222,126.278 87.340,129.166 83.778,129.166 L83.778,135.625 C83.778,139.195 80.896,142.083 77.333,142.083 L77.333,148.541 C77.333,152.112 74.451,154.1000 70.889,154.1000 L45.111,154.1000 C41.550,154.1000 38.667,152.112 38.667,148.541 L38.667,142.083 C35.105,142.083 32.222,139.195 32.222,135.625 L32.222,129.166 C28.660,129.166 25.778,126.278 25.778,122.708 L25.778,116.250 C25.778,116.136 25.835,116.043 25.841,115.935 C23.084,115.203 21.052,112.630 19.334,109.792 L3.373,77.500 C1.227,71.433 -0.000,64.931 -0.000,58.125 C-0.000,26.023 25.967,0.000 58.000,0.000 C90.034,0.000 116.000,26.023 116.000,58.125 C116.000,64.931 114.773,71.433 112.627,77.500 ZM45.111,148.541 L70.889,148.541 L70.889,142.083 L45.111,142.083 L45.111,148.541 ZM38.667,135.625 L45.111,135.625 L70.889,135.625 L77.333,135.625 L77.333,129.166 L38.667,129.166 L38.667,135.625 ZM32.222,122.708 L38.667,122.708 L77.333,122.708 L83.778,122.708 L83.778,116.250 L32.222,116.250 L32.222,122.708 ZM58.000,12.917 C33.085,12.917 12.889,33.149 12.889,58.125 C12.889,65.069 14.500,71.622 17.288,77.500 L30.347,103.333 L85.792,103.333 L98.712,77.500 C101.500,71.622 103.111,65.069 103.111,58.125 C103.111,33.149 82.916,12.917 58.000,12.917 ZM58.000,25.833 L58.000,19.375 C79.354,19.375 96.667,36.726 96.667,58.125 L90.222,58.125 C90.222,40.290 75.798,25.833 58.000,25.833 Z"/>
</svg>