<svg 
 xmlns="http://www.w3.org/2000/svg"
 xmlns:xlink="http://www.w3.org/1999/xlink"
 width="163px" height="143px">
<path fill-rule="evenodd"  fill="rgb(19, 14, 39)"
 d="M149.850,75.228 L81.948,142.025 L14.051,75.228 C-3.452,58.011 -3.452,30.106 14.051,12.889 C31.547,-4.322 59.921,-4.322 77.423,12.889 C79.107,14.552 80.587,16.339 81.948,18.178 C83.314,16.339 84.788,14.552 86.478,12.889 C103.981,-4.322 132.347,-4.322 149.850,12.889 C167.346,30.106 167.346,58.011 149.850,75.228 ZM140.795,21.796 C128.299,9.503 108.029,9.503 95.526,21.796 C92.541,24.733 81.948,35.154 81.948,35.154 C81.948,35.154 71.360,24.733 68.368,21.796 C55.872,9.503 35.609,9.503 23.100,21.796 C10.603,34.101 10.603,54.028 23.100,66.328 C26.329,69.497 81.948,124.216 81.948,124.216 C81.948,124.216 137.572,69.497 140.795,66.328 C153.291,54.028 153.291,34.101 140.795,21.796 ZM125.288,55.959 C127.738,53.554 129.250,50.227 129.250,46.551 C129.250,39.202 123.194,33.245 115.723,33.245 L115.723,26.591 C126.926,26.591 136.013,35.531 136.013,46.551 C136.013,52.060 133.741,57.049 130.069,60.662 L125.288,55.959 Z"/>
</svg>