<svg 
 xmlns="http://www.w3.org/2000/svg"
 xmlns:xlink="http://www.w3.org/1999/xlink"
 width="150px" height="150px">
<path fill-rule="evenodd"  fill="rgb(19, 14, 39)"
 d="M75.000,150.000 C33.582,150.000 0.000,116.421 0.000,75.000 C0.000,33.579 33.582,0.000 75.000,0.000 C116.419,0.000 150.000,33.579 150.000,75.000 C150.000,116.421 116.419,150.000 75.000,150.000 ZM81.250,12.815 L81.250,18.750 C81.250,22.201 78.454,25.000 75.000,25.000 C71.546,25.000 68.750,22.201 68.750,18.750 L68.750,12.815 C39.228,15.747 15.747,39.224 12.817,68.750 L18.750,68.750 C22.205,68.750 25.000,71.545 25.000,75.000 C25.000,78.454 22.205,81.250 18.750,81.250 L12.817,81.250 C15.747,110.776 39.228,134.254 68.750,137.185 L68.750,131.250 C68.750,127.796 71.546,125.000 75.000,125.000 C78.454,125.000 81.250,127.796 81.250,131.250 L81.250,137.185 C110.773,134.254 134.253,110.776 137.183,81.250 L131.250,81.250 C127.796,81.250 125.000,78.454 125.000,75.000 C125.000,71.545 127.796,68.750 131.250,68.750 L137.183,68.750 C134.253,39.224 110.773,15.747 81.250,12.815 ZM61.743,88.258 L35.230,79.413 L105.939,44.055 L70.582,114.771 L61.743,88.258 ZM91.962,58.032 L51.514,78.260 L63.721,82.324 L66.687,83.314 L67.669,86.280 L71.741,98.480 L91.962,58.032 Z"/>
</svg>