<svg 
 xmlns="http://www.w3.org/2000/svg"
 xmlns:xlink="http://www.w3.org/1999/xlink"
 width="137px" height="137px">
<path fill-rule="evenodd"  fill="rgb(19, 14, 39)"
 d="M84.630,68.489 L95.672,57.447 C105.910,61.455 117.983,59.354 126.254,51.083 L130.289,47.047 C139.207,38.129 139.207,23.671 130.289,14.759 L126.254,18.794 L110.113,34.936 C107.883,37.171 104.272,37.171 102.042,34.936 C99.807,32.706 99.807,29.094 102.042,26.864 L118.183,10.724 L122.219,6.688 C113.306,-2.229 98.849,-2.229 89.931,6.688 L85.895,10.724 C77.624,18.995 75.523,31.067 79.531,41.306 L64.454,56.383 L10.891,2.820 L0.000,-0.000 L2.820,10.891 L56.383,64.453 L5.183,115.653 C0.725,120.112 0.725,127.335 5.183,131.794 C9.643,136.253 16.866,136.253 21.325,131.794 L68.489,84.630 L117.492,133.634 C121.952,138.093 129.175,138.093 133.634,133.634 C138.093,129.175 138.093,121.951 133.634,117.492 L84.630,68.489 ZM89.931,14.759 L93.971,10.724 C99.233,5.457 107.048,4.403 113.407,7.430 L98.007,22.829 C93.548,27.288 93.548,34.517 98.007,38.971 C102.460,43.430 109.690,43.430 114.148,38.971 L129.548,23.570 C132.574,29.931 131.521,37.744 126.254,43.012 L122.219,47.047 C113.306,55.960 98.849,55.960 89.931,47.047 C81.018,38.129 81.018,23.671 89.931,14.759 ZM82.267,46.640 C83.309,48.207 84.513,49.694 85.895,51.083 C87.283,52.465 88.772,53.669 90.338,54.711 L76.560,68.489 L68.489,60.418 L82.267,46.640 ZM17.289,127.758 C15.060,129.988 11.448,129.988 9.219,127.758 C6.989,125.529 6.989,121.918 9.219,119.689 L17.289,111.618 L25.360,119.689 L17.289,127.758 ZM21.325,107.583 L60.418,68.489 L68.489,76.560 L29.395,115.653 L21.325,107.583 ZM73.098,81.169 L81.169,73.098 L117.492,109.421 L109.422,117.492 L73.098,81.169 ZM129.598,129.598 C127.369,131.828 123.757,131.828 121.528,129.598 L113.457,121.527 L121.528,113.457 L129.598,121.527 C131.828,123.757 131.828,127.369 129.598,129.598 Z"/>
</svg>